<svg width="991" height="148" viewBox="0 0 991 148" fill="none" xmlns="http://www.w3.org/2000/svg">
<path d="M0 112C0 105.373 5.37258 100 12 100H40C41.6569 100 43 101.343 43 103V144C43 145.657 41.6569 147 40 147H12C5.37258 147 0 141.627 0 135V112Z" fill="#90BD31"/>
<path d="M51 100H94V144C94 145.657 92.6569 147 91 147H54C52.3431 147 51 145.657 51 144V100Z" fill="#477AB8"/>
<path d="M51 62C51 55.3726 56.3726 50 63 50H91C92.6569 50 94 51.3431 94 53V100H51V62Z" fill="#5A90D3"/>
<path d="M102 50H145V100H102V50Z" fill="#EE8013"/>
<path d="M102 12C102 5.37258 107.373 0 114 0H133C139.627 0 145 5.37258 145 12V50H102V12Z" fill="#FDA44D"/>
<path d="M102 100H145V135C145 141.627 139.627 147 133 147H105C103.343 147 102 145.657 102 144V100Z" fill="#D86F07"/>
<path d="M196.928 110.688C199.056 111.12 200.712 112.032 201.896 113.424C203.08 114.816 203.672 116.64 203.672 118.896C203.672 121.168 203.072 123.08 201.872 124.632C200.672 126.168 198.68 127.352 195.896 128.184C193.128 129 189.424 129.408 184.784 129.408C183.184 129.408 181.368 129.336 179.336 129.192C177.32 129.064 175.456 128.896 173.744 128.688V94.464C175.616 94.032 177.68 93.688 179.936 93.432C182.208 93.176 184.392 93.048 186.488 93.048C192.136 93.048 196.248 93.888 198.824 95.568C201.416 97.248 202.712 99.744 202.712 103.056C202.712 104.928 202.2 106.544 201.176 107.904C200.152 109.264 198.736 110.192 196.928 110.688ZM187.424 98.904C185.6 98.904 183.808 99.072 182.048 99.408V107.856H188.144C190.48 107.856 192.168 107.496 193.208 106.776C194.264 106.04 194.792 104.912 194.792 103.392C194.792 102.336 194.552 101.48 194.072 100.824C193.592 100.168 192.816 99.688 191.744 99.384C190.672 99.064 189.232 98.904 187.424 98.904ZM187.016 123.552C189.304 123.552 191.104 123.368 192.416 123C193.728 122.632 194.648 122.096 195.176 121.392C195.704 120.672 195.968 119.752 195.968 118.632C195.968 117.496 195.728 116.576 195.248 115.872C194.784 115.168 194.032 114.648 192.992 114.312C191.968 113.976 190.608 113.808 188.912 113.808H182.048V123.288C183.456 123.464 185.112 123.552 187.016 123.552ZM208.61 129V102.744H216.914V129H208.61ZM212.762 98.952C209.386 98.952 207.698 97.616 207.698 94.944C207.698 93.632 208.114 92.632 208.946 91.944C209.794 91.256 211.066 90.912 212.762 90.912C214.458 90.912 215.722 91.256 216.554 91.944C217.402 92.632 217.826 93.632 217.826 94.944C217.826 97.616 216.138 98.952 212.762 98.952ZM223.657 129V90.216H231.961V129H223.657ZM249.768 129.432C247.4 129.432 245.28 128.976 243.408 128.064C241.552 127.136 240.08 125.696 238.992 123.744C237.904 121.792 237.36 119.352 237.36 116.424C237.36 113.432 237.976 110.88 239.208 108.768C240.44 106.64 242.216 105.024 244.536 103.92C246.856 102.816 249.632 102.264 252.864 102.264C254.336 102.264 255.904 102.368 257.568 102.576V90.216H265.872V129H258.936L258.504 126.264H258.096C257.072 127.256 255.848 128.032 254.424 128.592C253.016 129.152 251.464 129.432 249.768 129.432ZM252 122.832C253.072 122.832 254.088 122.664 255.048 122.328C256.024 121.992 256.864 121.464 257.568 120.744V108.912C256.288 108.64 254.904 108.504 253.416 108.504C250.76 108.504 248.792 109.112 247.512 110.328C246.232 111.544 245.592 113.392 245.592 115.872C245.592 120.512 247.728 122.832 252 122.832ZM283.106 129.432C279.746 129.432 277.106 128.512 275.186 126.672C273.282 124.816 272.33 121.944 272.33 118.056V102.744H280.634V117.624C280.634 119.368 281.002 120.616 281.738 121.368C282.49 122.12 283.586 122.496 285.026 122.496C286.098 122.496 287.154 122.296 288.194 121.896C289.234 121.48 290.122 120.896 290.858 120.144V102.744H299.162V129H292.37L291.866 126.456H291.53C290.378 127.416 289.074 128.152 287.618 128.664C286.178 129.176 284.674 129.432 283.106 129.432ZM305.876 102.744H312.668L313.196 105.312H313.58C314.716 104.368 316.044 103.64 317.564 103.128C319.1 102.6 320.724 102.336 322.436 102.336C325.7 102.336 328.268 103.272 330.14 105.144C332.012 107 332.948 109.872 332.948 113.76V129H324.644V114.168C324.644 112.392 324.268 111.136 323.516 110.4C322.764 109.648 321.628 109.272 320.108 109.272C319.004 109.272 317.924 109.472 316.868 109.872C315.812 110.272 314.916 110.848 314.18 111.6V129H305.876V102.744ZM350.407 140.04C346.631 140.04 343.143 139.624 339.943 138.792V132.432C341.719 132.912 343.455 133.264 345.151 133.488C346.847 133.728 348.399 133.848 349.807 133.848C351.855 133.848 353.495 133.624 354.727 133.176C355.959 132.744 356.855 132.072 357.415 131.16C357.975 130.264 358.255 129.088 358.255 127.632V126.12H357.871C355.807 128.056 353.103 129.024 349.759 129.024C347.583 129.024 345.607 128.544 343.831 127.584C342.055 126.624 340.647 125.2 339.607 123.312C338.567 121.424 338.047 119.128 338.047 116.424C338.047 113.448 338.671 110.912 339.919 108.816C341.183 106.704 343.055 105.096 345.535 103.992C348.031 102.888 351.095 102.336 354.727 102.336C356.727 102.336 358.783 102.472 360.895 102.744C363.023 103.016 364.911 103.392 366.559 103.872V126.048C366.559 129.296 365.983 131.944 364.831 133.992C363.679 136.056 361.911 137.576 359.527 138.552C357.159 139.544 354.119 140.04 350.407 140.04ZM352.663 122.424C353.687 122.424 354.687 122.272 355.663 121.968C356.639 121.664 357.503 121.208 358.255 120.6V109.008C357.007 108.688 355.591 108.528 354.007 108.528C351.463 108.528 349.535 109.136 348.223 110.352C346.927 111.552 346.279 113.36 346.279 115.776C346.279 118.096 346.839 119.784 347.959 120.84C349.095 121.896 350.663 122.424 352.663 122.424ZM382.498 129.504C380.69 129.504 378.93 129.4 377.218 129.192C375.506 128.984 373.938 128.68 372.514 128.28V122.64C374.018 123.056 375.618 123.376 377.314 123.6C379.026 123.808 380.73 123.912 382.426 123.912C384.394 123.912 385.794 123.704 386.626 123.288C387.458 122.856 387.874 122.216 387.874 121.368C387.874 120.744 387.682 120.272 387.298 119.952C386.93 119.616 386.234 119.376 385.21 119.232L380.05 118.512C377.154 118.096 375.074 117.264 373.81 116.016C372.546 114.752 371.914 113.04 371.914 110.88C371.914 108.208 373.074 106.12 375.394 104.616C377.714 103.096 381.242 102.336 385.978 102.336C387.434 102.336 388.898 102.432 390.37 102.624C391.858 102.8 393.154 103.04 394.258 103.344V108.984C393.09 108.664 391.778 108.408 390.322 108.216C388.882 108.024 387.458 107.928 386.05 107.928C383.666 107.928 382.018 108.16 381.106 108.624C380.21 109.072 379.762 109.704 379.762 110.52C379.762 111.08 379.954 111.536 380.338 111.888C380.722 112.224 381.41 112.472 382.402 112.632L387.562 113.352C390.33 113.736 392.386 114.512 393.73 115.68C395.074 116.848 395.746 118.616 395.746 120.984C395.746 122.744 395.242 124.264 394.234 125.544C393.226 126.824 391.73 127.808 389.746 128.496C387.762 129.168 385.346 129.504 382.498 129.504ZM400.704 102.744H407.496L408.024 105.312H408.408C409.544 104.368 410.872 103.64 412.392 103.128C413.928 102.6 415.552 102.336 417.264 102.336C420.528 102.336 423.096 103.272 424.968 105.144C426.84 107 427.776 109.872 427.776 113.76V129H419.472V114.168C419.472 112.392 419.096 111.136 418.344 110.4C417.592 109.648 416.456 109.272 414.936 109.272C413.832 109.272 412.752 109.472 411.696 109.872C410.64 110.272 409.744 110.848 409.008 111.6V129H400.704V102.744ZM459.515 118.152H441.107C441.203 119.48 441.555 120.536 442.163 121.32C442.771 122.088 443.731 122.656 445.043 123.024C446.371 123.392 448.163 123.576 450.419 123.576C452.691 123.576 455.171 123.304 457.859 122.76V128.616C454.947 129.208 452.043 129.504 449.147 129.504C443.595 129.504 439.491 128.408 436.835 126.216C434.195 124.008 432.875 120.584 432.875 115.944C432.875 113.112 433.403 110.68 434.459 108.648C435.531 106.6 437.091 105.04 439.139 103.968C441.203 102.88 443.691 102.336 446.603 102.336C449.387 102.336 451.739 102.888 453.659 103.992C455.595 105.08 457.051 106.664 458.027 108.744C459.019 110.808 459.515 113.296 459.515 116.208V118.152ZM446.459 107.376C444.699 107.376 443.371 107.88 442.475 108.888C441.595 109.896 441.123 111.472 441.059 113.616H451.835C451.771 111.488 451.291 109.92 450.395 108.912C449.515 107.888 448.203 107.376 446.459 107.376ZM479.486 122.904C480.302 122.904 481.342 122.784 482.606 122.544V128.88C481.774 129.072 480.878 129.224 479.918 129.336C478.958 129.448 478.03 129.504 477.134 129.504C473.582 129.504 470.894 128.664 469.07 126.984C467.246 125.304 466.334 122.776 466.334 119.4V109.272H461.582V102.744H466.334L467.822 93.48H474.638V102.744H482.438V109.272H474.638V117.84C474.638 119.104 474.806 120.104 475.142 120.84C475.494 121.576 476.022 122.104 476.726 122.424C477.43 122.744 478.35 122.904 479.486 122.904ZM496.816 122.472H510.616V129H485.728V123.648L499.24 109.272H485.992V102.744H510.352V108.072L496.816 122.472ZM551.675 102.744H559.355L551.507 129H542.171L536.507 110.04L530.723 129H521.387L513.491 102.744H521.507L526.547 120.768L531.923 102.744H541.259L546.491 120.528L551.675 102.744ZM589.172 118.152H570.764C570.86 119.48 571.212 120.536 571.82 121.32C572.428 122.088 573.388 122.656 574.7 123.024C576.028 123.392 577.82 123.576 580.076 123.576C582.348 123.576 584.828 123.304 587.516 122.76V128.616C584.604 129.208 581.7 129.504 578.804 129.504C573.252 129.504 569.148 128.408 566.492 126.216C563.852 124.008 562.532 120.584 562.532 115.944C562.532 113.112 563.06 110.68 564.116 108.648C565.188 106.6 566.748 105.04 568.796 103.968C570.86 102.88 573.348 102.336 576.26 102.336C579.044 102.336 581.396 102.888 583.316 103.992C585.252 105.08 586.708 106.664 587.684 108.744C588.676 110.808 589.172 113.296 589.172 116.208V118.152ZM576.116 107.376C574.356 107.376 573.028 107.88 572.132 108.888C571.252 109.896 570.78 111.472 570.716 113.616H581.492C581.428 111.488 580.948 109.92 580.052 108.912C579.172 107.888 577.86 107.376 576.116 107.376ZM594.251 102.744H601.019L601.667 105.888H602.051C602.899 104.752 603.995 103.888 605.339 103.296C606.683 102.688 608.171 102.384 609.803 102.384C610.715 102.384 611.547 102.456 612.299 102.6V109.92C611.515 109.76 610.523 109.68 609.323 109.68C608.059 109.68 606.795 109.896 605.531 110.328C604.283 110.744 603.291 111.352 602.555 112.152V129H594.251V102.744ZM636.919 129L629.023 118.872H624.727V129H616.423V90.216H624.727V112.152H628.975L636.199 102.744H645.151L635.743 115.32L646.015 129H636.919ZM690.078 129L686.694 119.592H671.382L667.998 129H659.718L672.966 93.48H685.182L698.454 129H690.078ZM673.662 113.232H684.414L679.038 98.28L673.662 113.232ZM712.831 102.336C716.079 102.336 718.687 102.704 720.655 103.44C722.639 104.176 724.103 105.392 725.047 107.088C726.007 108.784 726.487 111.104 726.487 114.048V129H719.599L719.047 126.528H718.639C717.711 127.488 716.551 128.224 715.159 128.736C713.783 129.232 712.287 129.48 710.671 129.48C708.591 129.48 706.823 129.16 705.367 128.52C703.911 127.864 702.815 126.96 702.079 125.808C701.343 124.656 700.975 123.328 700.975 121.824C700.975 119.344 701.951 117.424 703.903 116.064C705.855 114.704 708.919 113.888 713.095 113.616L718.351 113.208C718.319 111.96 718.071 110.984 717.607 110.28C717.143 109.576 716.415 109.072 715.423 108.768C714.447 108.464 713.111 108.312 711.415 108.312C710.215 108.312 708.887 108.416 707.431 108.624C705.975 108.816 704.607 109.104 703.327 109.488V103.584C704.751 103.168 706.303 102.856 707.983 102.648C709.679 102.44 711.295 102.336 712.831 102.336ZM713.239 124.056C714.151 124.056 715.047 123.92 715.927 123.648C716.823 123.36 717.631 122.936 718.351 122.376V117.648L713.839 118.008C712.175 118.152 710.983 118.48 710.263 118.992C709.559 119.504 709.207 120.224 709.207 121.152C709.207 122.064 709.543 122.776 710.215 123.288C710.887 123.8 711.895 124.056 713.239 124.056ZM732.954 102.744H739.722L740.37 105.888H740.754C741.602 104.752 742.698 103.888 744.042 103.296C745.386 102.688 746.874 102.384 748.506 102.384C749.418 102.384 750.25 102.456 751.002 102.6V109.92C750.218 109.76 749.226 109.68 748.026 109.68C746.762 109.68 745.498 109.896 744.234 110.328C742.986 110.744 741.994 111.352 741.258 112.152V129H732.954V102.744ZM765.345 140.04C761.569 140.04 758.081 139.624 754.881 138.792V132.432C756.657 132.912 758.393 133.264 760.089 133.488C761.785 133.728 763.337 133.848 764.745 133.848C766.793 133.848 768.433 133.624 769.665 133.176C770.897 132.744 771.793 132.072 772.353 131.16C772.913 130.264 773.193 129.088 773.193 127.632V126.12H772.809C770.745 128.056 768.041 129.024 764.697 129.024C762.521 129.024 760.545 128.544 758.769 127.584C756.993 126.624 755.585 125.2 754.545 123.312C753.505 121.424 752.985 119.128 752.985 116.424C752.985 113.448 753.609 110.912 754.857 108.816C756.121 106.704 757.993 105.096 760.473 103.992C762.969 102.888 766.033 102.336 769.665 102.336C771.665 102.336 773.721 102.472 775.833 102.744C777.961 103.016 779.849 103.392 781.497 103.872V126.048C781.497 129.296 780.921 131.944 779.769 133.992C778.617 136.056 776.849 137.576 774.465 138.552C772.097 139.544 769.057 140.04 765.345 140.04ZM767.601 122.424C768.625 122.424 769.625 122.272 770.601 121.968C771.577 121.664 772.441 121.208 773.193 120.6V109.008C771.945 108.688 770.529 108.528 768.945 108.528C766.401 108.528 764.473 109.136 763.161 110.352C761.865 111.552 761.217 113.36 761.217 115.776C761.217 118.096 761.777 119.784 762.897 120.84C764.033 121.896 765.601 122.424 767.601 122.424ZM798.659 102.336C801.907 102.336 804.515 102.704 806.483 103.44C808.467 104.176 809.931 105.392 810.875 107.088C811.835 108.784 812.315 111.104 812.315 114.048V129H805.427L804.875 126.528H804.467C803.539 127.488 802.379 128.224 800.987 128.736C799.611 129.232 798.115 129.48 796.499 129.48C794.419 129.48 792.651 129.16 791.195 128.52C789.739 127.864 788.643 126.96 787.907 125.808C787.171 124.656 786.803 123.328 786.803 121.824C786.803 119.344 787.779 117.424 789.731 116.064C791.683 114.704 794.747 113.888 798.923 113.616L804.179 113.208C804.147 111.96 803.899 110.984 803.435 110.28C802.971 109.576 802.243 109.072 801.251 108.768C800.275 108.464 798.939 108.312 797.243 108.312C796.043 108.312 794.715 108.416 793.259 108.624C791.803 108.816 790.435 109.104 789.155 109.488V103.584C790.579 103.168 792.131 102.856 793.811 102.648C795.507 102.44 797.123 102.336 798.659 102.336ZM799.067 124.056C799.979 124.056 800.875 123.92 801.755 123.648C802.651 123.36 803.459 122.936 804.179 122.376V117.648L799.667 118.008C798.003 118.152 796.811 118.48 796.091 118.992C795.387 119.504 795.035 120.224 795.035 121.152C795.035 122.064 795.371 122.776 796.043 123.288C796.715 123.8 797.723 124.056 799.067 124.056ZM829.294 129.432C825.934 129.432 823.294 128.512 821.374 126.672C819.47 124.816 818.518 121.944 818.518 118.056V102.744H826.822V117.624C826.822 119.368 827.19 120.616 827.926 121.368C828.678 122.12 829.774 122.496 831.214 122.496C832.286 122.496 833.342 122.296 834.382 121.896C835.422 121.48 836.31 120.896 837.046 120.144V102.744H845.35V129H838.558L838.054 126.456H837.718C836.566 127.416 835.262 128.152 833.806 128.664C832.366 129.176 830.862 129.432 829.294 129.432ZM883.99 129.456C880.086 129.456 876.694 128.752 873.814 127.344C870.934 125.92 868.718 123.848 867.166 121.128C865.614 118.392 864.838 115.096 864.838 111.24C864.838 107.384 865.614 104.096 867.166 101.376C868.718 98.64 870.934 96.568 873.814 95.16C876.694 93.736 880.086 93.024 883.99 93.024C887.91 93.024 891.31 93.736 894.19 95.16C897.07 96.584 899.286 98.664 900.838 101.4C902.39 104.12 903.166 107.4 903.166 111.24C903.166 115.08 902.382 118.368 900.814 121.104C899.262 123.824 897.046 125.896 894.166 127.32C891.286 128.744 887.894 129.456 883.99 129.456ZM883.99 122.784C887.334 122.784 889.918 121.832 891.742 119.928C893.566 118.024 894.478 115.184 894.478 111.408C894.478 107.488 893.558 104.56 891.718 102.624C889.894 100.672 887.318 99.696 883.99 99.696C880.678 99.696 878.102 100.648 876.262 102.552C874.422 104.44 873.502 107.28 873.502 111.072C873.502 115.04 874.406 117.984 876.214 119.904C878.022 121.824 880.614 122.784 883.99 122.784ZM918.139 129.504C916.331 129.504 914.571 129.4 912.859 129.192C911.147 128.984 909.579 128.68 908.155 128.28V122.64C909.659 123.056 911.259 123.376 912.955 123.6C914.667 123.808 916.371 123.912 918.067 123.912C920.035 123.912 921.435 123.704 922.267 123.288C923.099 122.856 923.515 122.216 923.515 121.368C923.515 120.744 923.323 120.272 922.939 119.952C922.571 119.616 921.875 119.376 920.851 119.232L915.691 118.512C912.795 118.096 910.715 117.264 909.451 116.016C908.187 114.752 907.555 113.04 907.555 110.88C907.555 108.208 908.715 106.12 911.035 104.616C913.355 103.096 916.883 102.336 921.619 102.336C923.075 102.336 924.539 102.432 926.011 102.624C927.499 102.8 928.795 103.04 929.899 103.344V108.984C928.731 108.664 927.419 108.408 925.963 108.216C924.523 108.024 923.099 107.928 921.691 107.928C919.307 107.928 917.659 108.16 916.747 108.624C915.851 109.072 915.403 109.704 915.403 110.52C915.403 111.08 915.595 111.536 915.979 111.888C916.363 112.224 917.051 112.472 918.043 112.632L923.203 113.352C925.971 113.736 928.027 114.512 929.371 115.68C930.715 116.848 931.387 118.616 931.387 120.984C931.387 122.744 930.883 124.264 929.875 125.544C928.867 126.824 927.371 127.808 925.387 128.496C923.403 129.168 920.987 129.504 918.139 129.504ZM951.329 122.904C952.145 122.904 953.185 122.784 954.449 122.544V128.88C953.617 129.072 952.721 129.224 951.761 129.336C950.801 129.448 949.873 129.504 948.977 129.504C945.425 129.504 942.737 128.664 940.913 126.984C939.089 125.304 938.177 122.776 938.177 119.4V109.272H933.425V102.744H938.177L939.665 93.48H946.481V102.744H954.281V109.272H946.481V117.84C946.481 119.104 946.649 120.104 946.985 120.84C947.337 121.576 947.865 122.104 948.569 122.424C949.273 122.744 950.193 122.904 951.329 122.904Z" fill="white"/>
<path d="M189.552 67.64C184.112 67.64 179.227 66.9893 174.896 65.688V15.288H183.92V35.608H184.336C185.701 34.2853 187.312 33.2827 189.168 32.6C191.024 31.896 193.093 31.544 195.376 31.544C198.299 31.544 200.923 32.1627 203.248 33.4C205.573 34.6373 207.408 36.5467 208.752 39.128C210.117 41.688 210.8 44.888 210.8 48.728C210.8 54.936 209.008 59.64 205.424 62.84C201.84 66.04 196.549 67.64 189.552 67.64ZM190.384 60.792C194.224 60.792 197.083 59.864 198.96 58.008C200.859 56.1307 201.808 53.2613 201.808 49.4C201.808 45.688 200.976 43 199.312 41.336C197.648 39.6507 195.333 38.808 192.368 38.808C190.768 38.808 189.232 39.064 187.76 39.576C186.309 40.088 185.029 40.8667 183.92 41.912V59.992C185.904 60.5253 188.059 60.792 190.384 60.792ZM232.148 32.088H239.572L240.148 35.736H240.596C242.175 34.392 243.999 33.3573 246.068 32.632C248.159 31.9067 250.367 31.544 252.692 31.544C256.938 31.544 260.276 32.7387 262.708 35.128C265.14 37.496 266.356 41.1867 266.356 46.2V67H257.333V46.616C257.333 43.9493 256.735 42.04 255.541 40.888C254.367 39.736 252.618 39.16 250.292 39.16C248.628 39.16 246.975 39.4693 245.332 40.088C243.711 40.7067 242.324 41.624 241.172 42.84V67H232.148V32.088ZM302.271 31.544C306.26 31.544 309.482 32.0027 311.935 32.92C314.41 33.8373 316.244 35.3627 317.439 37.496C318.655 39.6293 319.263 42.5413 319.263 46.232V67H311.743L311.135 63.48H310.687C309.407 64.8027 307.807 65.8267 305.887 66.552C303.967 67.256 301.908 67.608 299.711 67.608C297.044 67.608 294.772 67.192 292.895 66.36C291.039 65.528 289.631 64.3653 288.671 62.872C287.711 61.3787 287.231 59.64 287.231 57.656C287.231 54.456 288.458 51.9813 290.911 50.232C293.364 48.4613 297.247 47.384 302.559 47L310.431 46.264V45.56C310.431 43.6613 310.1 42.1893 309.439 41.144C308.778 40.0773 307.754 39.32 306.367 38.872C305.002 38.424 303.156 38.2 300.831 38.2C299.21 38.2 297.439 38.3387 295.519 38.616C293.62 38.872 291.818 39.2667 290.111 39.8V33.24C291.903 32.6853 293.876 32.2693 296.031 31.992C298.207 31.6933 300.287 31.544 302.271 31.544ZM302.367 61.56C303.839 61.56 305.268 61.3147 306.655 60.824C308.042 60.3333 309.3 59.5973 310.431 58.616V51.352L303.295 51.992C300.756 52.248 298.943 52.7813 297.855 53.592C296.767 54.3813 296.223 55.5013 296.223 56.952C296.223 58.4027 296.735 59.5333 297.759 60.344C298.783 61.1547 300.319 61.56 302.367 61.56ZM355.211 31.544C359.2 31.544 362.422 32.0027 364.875 32.92C367.35 33.8373 369.184 35.3627 370.379 37.496C371.595 39.6293 372.203 42.5413 372.203 46.232V67H364.683L364.075 63.48H363.627C362.347 64.8027 360.747 65.8267 358.827 66.552C356.907 67.256 354.848 67.608 352.651 67.608C349.984 67.608 347.712 67.192 345.835 66.36C343.979 65.528 342.571 64.3653 341.611 62.872C340.651 61.3787 340.171 59.64 340.171 57.656C340.171 54.456 341.398 51.9813 343.851 50.232C346.304 48.4613 350.187 47.384 355.499 47L363.371 46.264V45.56C363.371 43.6613 363.04 42.1893 362.379 41.144C361.718 40.0773 360.694 39.32 359.307 38.872C357.942 38.424 356.096 38.2 353.771 38.2C352.15 38.2 350.379 38.3387 348.459 38.616C346.56 38.872 344.758 39.2667 343.051 39.8V33.24C344.843 32.6853 346.816 32.2693 348.971 31.992C351.147 31.6933 353.227 31.544 355.211 31.544ZM355.307 61.56C356.779 61.56 358.208 61.3147 359.595 60.824C360.982 60.3333 362.24 59.5973 363.371 58.616V51.352L356.235 51.992C353.696 52.248 351.883 52.7813 350.795 53.592C349.707 54.3813 349.163 55.5013 349.163 56.952C349.163 58.4027 349.675 59.5333 350.699 60.344C351.723 61.1547 353.259 61.56 355.307 61.56ZM395.031 32.088H402.423L403.127 36.408H403.575C404.77 34.8933 406.316 33.7307 408.215 32.92C410.114 32.088 412.151 31.672 414.327 31.672C415.543 31.672 416.674 31.768 417.719 31.96V39.96C416.674 39.768 415.383 39.672 413.847 39.672C412.055 39.672 410.252 39.992 408.439 40.632C406.626 41.272 405.164 42.2213 404.055 43.48V67H395.031V32.088ZM449.733 81.72C445.018 81.72 440.602 81.144 436.485 79.992V72.984C441.007 74.2427 445.231 74.872 449.157 74.872C451.973 74.872 454.234 74.552 455.941 73.912C457.669 73.272 458.927 72.2587 459.717 70.872C460.527 69.5067 460.933 67.6933 460.933 65.432V63.096H460.485C459.119 64.4187 457.509 65.432 455.653 66.136C453.797 66.8187 451.738 67.16 449.477 67.16C446.575 67.16 443.951 66.5413 441.605 65.304C439.279 64.0453 437.434 62.1467 436.069 59.608C434.703 57.0693 434.021 53.9653 434.021 50.296C434.021 44.2587 435.823 39.6293 439.429 36.408C443.034 33.1653 448.325 31.544 455.301 31.544C457.775 31.544 460.303 31.7147 462.885 32.056C465.466 32.3973 467.823 32.8773 469.957 33.496V63.768C469.957 67.9493 469.231 71.3627 467.781 74.008C466.33 76.6533 464.111 78.5947 461.125 79.832C458.159 81.0907 454.362 81.72 449.733 81.72ZM452.485 59.896C454.063 59.896 455.589 59.64 457.061 59.128C458.533 58.616 459.823 57.8373 460.933 56.792V39.128C458.927 38.6373 456.783 38.392 454.501 38.392C446.842 38.392 443.013 42.1147 443.013 49.56C443.013 53.1867 443.845 55.8213 445.509 57.464C447.194 59.0853 449.519 59.896 452.485 59.896ZM506.281 31.544C510.27 31.544 513.492 32.0027 515.945 32.92C518.42 33.8373 520.254 35.3627 521.449 37.496C522.665 39.6293 523.273 42.5413 523.273 46.232V67H515.753L515.145 63.48H514.697C513.417 64.8027 511.817 65.8267 509.897 66.552C507.977 67.256 505.918 67.608 503.721 67.608C501.054 67.608 498.782 67.192 496.905 66.36C495.049 65.528 493.641 64.3653 492.681 62.872C491.721 61.3787 491.241 59.64 491.241 57.656C491.241 54.456 492.468 51.9813 494.921 50.232C497.374 48.4613 501.257 47.384 506.569 47L514.441 46.264V45.56C514.441 43.6613 514.11 42.1893 513.449 41.144C512.788 40.0773 511.764 39.32 510.377 38.872C509.012 38.424 507.166 38.2 504.841 38.2C503.22 38.2 501.449 38.3387 499.529 38.616C497.63 38.872 495.828 39.2667 494.121 39.8V33.24C495.913 32.6853 497.886 32.2693 500.041 31.992C502.217 31.6933 504.297 31.544 506.281 31.544ZM506.377 61.56C507.849 61.56 509.278 61.3147 510.665 60.824C512.052 60.3333 513.31 59.5973 514.441 58.616V51.352L507.305 51.992C504.766 52.248 502.953 52.7813 501.865 53.592C500.777 54.3813 500.233 55.5013 500.233 56.952C500.233 58.4027 500.745 59.5333 501.769 60.344C502.793 61.1547 504.329 61.56 506.377 61.56ZM559.541 67.576C555.232 67.576 551.84 66.4027 549.365 64.056C546.912 61.688 545.685 58.0187 545.685 53.048V32.088H554.709V52.568C554.709 55.2133 555.296 57.112 556.469 58.264C557.642 59.3947 559.338 59.96 561.557 59.96C563.2 59.96 564.821 59.6507 566.421 59.032C568.021 58.392 569.397 57.4747 570.549 56.28V32.088H579.573V67H572.149L571.573 63.448H571.189C569.61 64.7707 567.818 65.7947 565.813 66.52C563.808 67.224 561.717 67.576 559.541 67.576ZM619.399 67.64C615.644 67.64 612.38 66.9573 609.607 65.592C606.834 64.2267 604.69 62.1893 603.175 59.48C601.66 56.7707 600.903 53.464 600.903 49.56C600.903 45.656 601.639 42.36 603.111 39.672C604.604 36.984 606.727 34.9573 609.479 33.592C612.252 32.2267 615.559 31.544 619.399 31.544C623.26 31.544 626.567 32.2267 629.319 33.592C632.092 34.936 634.215 36.952 635.687 39.64C637.159 42.3067 637.895 45.6133 637.895 49.56C637.895 53.4213 637.127 56.7067 635.591 59.416C634.076 62.1253 631.922 64.1733 629.127 65.56C626.354 66.9467 623.111 67.64 619.399 67.64ZM619.399 60.664C625.735 60.664 628.903 56.9733 628.903 49.592C628.903 45.752 628.092 42.9573 626.471 41.208C624.85 39.4373 622.492 38.552 619.399 38.552C616.327 38.552 613.97 39.4267 612.327 41.176C610.706 42.9253 609.895 45.7093 609.895 49.528C609.895 56.952 613.063 60.664 619.399 60.664ZM670.717 67.64C665.981 67.64 661.789 67.1173 658.141 66.072V59.768C662.109 60.8773 666.291 61.432 670.685 61.432C673.608 61.432 675.699 61.0693 676.957 60.344C678.237 59.6187 678.877 58.552 678.877 57.144C678.877 56.056 678.557 55.224 677.917 54.648C677.277 54.072 676.115 53.656 674.429 53.4L667.901 52.44C664.189 51.8853 661.512 50.7867 659.869 49.144C658.227 47.5013 657.405 45.2933 657.405 42.52C657.405 39.1067 658.845 36.4293 661.725 34.488C664.627 32.5253 669.043 31.544 674.973 31.544C676.829 31.544 678.675 31.6613 680.509 31.896C682.365 32.1307 684.029 32.4507 685.501 32.856V39.16C682.259 38.2427 678.771 37.784 675.037 37.784C671.667 37.784 669.32 38.168 667.997 38.936C666.675 39.704 666.013 40.7707 666.013 42.136C666.013 43.1173 666.333 43.9173 666.973 44.536C667.613 45.1547 668.733 45.6027 670.333 45.88L676.861 46.84C680.488 47.3733 683.165 48.3973 684.893 49.912C686.621 51.4267 687.485 53.688 687.485 56.696C687.485 58.9573 686.845 60.9093 685.565 62.552C684.307 64.1947 682.419 65.4533 679.901 66.328C677.405 67.2027 674.344 67.64 670.717 67.64ZM726.551 60.376C727.746 60.376 729.228 60.2053 730.999 59.864V66.872C728.716 67.384 726.423 67.64 724.119 67.64C719.618 67.64 716.194 66.5627 713.847 64.408C711.522 62.2533 710.359 59 710.359 54.648V39.256H703.703V32.088H710.359L711.959 19.64H719.383V32.088H730.647V39.256H719.383V52.952C719.383 55.64 719.959 57.5493 721.111 58.68C722.263 59.8107 724.076 60.376 726.551 60.376ZM800.216 67.64C793.859 67.64 788.995 66.1147 785.624 63.064C782.275 60.0133 780.6 55.5333 780.6 49.624C780.6 43.7147 782.35 39.224 785.848 36.152C789.368 33.08 794.488 31.544 801.208 31.544C804.579 31.544 807.608 31.896 810.296 32.6V39.608C808.76 39.288 807.342 39.0533 806.04 38.904C804.76 38.7547 803.427 38.68 802.04 38.68C797.859 38.68 794.776 39.5653 792.792 41.336C790.83 43.0853 789.848 45.8267 789.848 49.56C789.848 53.272 790.798 56.024 792.696 57.816C794.595 59.608 797.411 60.504 801.144 60.504C802.531 60.504 803.939 60.3973 805.368 60.184C806.798 59.9707 808.44 59.608 810.296 59.096V66.136C807.246 67.1387 803.886 67.64 800.216 67.64ZM831.053 15.288H840.077V35.64H840.493C842.008 34.296 843.757 33.2827 845.741 32.6C847.725 31.896 849.816 31.544 852.013 31.544C856.067 31.544 859.288 32.728 861.677 35.096C864.067 37.464 865.261 41.1227 865.261 46.072V67H856.237V46.552C856.237 43.9067 855.64 42.0187 854.445 40.888C853.251 39.7573 851.501 39.192 849.197 39.192C847.491 39.192 845.827 39.5013 844.205 40.12C842.605 40.7387 841.229 41.6453 840.077 42.84V67H831.053V15.288Z" fill="white"/>
<path d="M755.934 67.48C754.099 67.48 752.649 67.0107 751.582 66.072C750.537 65.112 750.014 63.8107 750.014 62.168C750.014 60.504 750.537 59.192 751.582 58.232C752.627 57.272 754.078 56.792 755.934 56.792C757.79 56.792 759.241 57.2827 760.286 58.264C761.331 59.224 761.854 60.5253 761.854 62.168C761.854 63.7893 761.321 65.08 760.254 66.04C759.209 67 757.769 67.48 755.934 67.48Z" fill="#EE8013"/>
</svg>
