<svg width="145" height="147" viewBox="0 0 145 147" fill="none" xmlns="http://www.w3.org/2000/svg">
<path d="M0 112C0 105.373 5.37258 100 12 100H40C41.6569 100 43 101.343 43 103V144C43 145.657 41.6569 147 40 147H12C5.37258 147 0 141.627 0 135V112Z" fill="#90BD31"/>
<path d="M51 100H94V144C94 145.657 92.6569 147 91 147H54C52.3431 147 51 145.657 51 144V100Z" fill="#477AB8"/>
<path d="M51 62C51 55.3726 56.3726 50 63 50H91C92.6569 50 94 51.3431 94 53V100H51V62Z" fill="#5A90D3"/>
<path d="M102 50H145V100H102V50Z" fill="#EE8013"/>
<path d="M102 12C102 5.37258 107.373 0 114 0H133C139.627 0 145 5.37258 145 12V50H102V12Z" fill="#FDA44D"/>
<path d="M102 100H145V135C145 141.627 139.627 147 133 147H105C103.343 147 102 145.657 102 144V100Z" fill="#D86F07"/>
</svg>
