<?xml version="1.0" encoding="UTF-8"?>
<svg xmlns="http://www.w3.org/2000/svg" viewBox="0 0 169.26 35.28" width="173" height="36">
  <defs>
    <style>.a{fill:#e2001a;}.b{fill:#1d1d1b;}</style>
  </defs>
  <title>logo_lernwerk</title>
  <path class="a" d="M77.65,46.09a2.48,2.48,0,1,0-2.48-2.48,2.48,2.48,0,0,0,2.48,2.48" transform="translate(-10.13 -10.81)"></path>
  <path class="a" d="M87.57,46.09a2.48,2.48,0,1,0-2.48-2.48,2.48,2.48,0,0,0,2.48,2.48" transform="translate(-10.13 -10.81)"></path>
  <path class="a" d="M102.45,46.09A2.48,2.48,0,1,0,100,43.61a2.48,2.48,0,0,0,2.48,2.48" transform="translate(-10.13 -10.81)"></path>
  <path class="a" d="M122.29,46.09a2.48,2.48,0,1,0-2.48-2.48,2.48,2.48,0,0,0,2.48,2.48" transform="translate(-10.13 -10.81)"></path>
  <path class="a" d="M147.1,46.09a2.48,2.48,0,1,0-2.48-2.48,2.48,2.48,0,0,0,2.48,2.48" transform="translate(-10.13 -10.81)"></path>
  <path class="a" d="M176.9,46.08a2.48,2.48,0,1,0-2.48-2.48,2.48,2.48,0,0,0,2.48,2.48" transform="translate(-10.13 -10.81)"></path>
  <path class="b" d="M137.69,36.17l-6.49-9.38,6-7.88h-5.42l-5,7.19V10.81h-4.45V36.17h4.45V27.62l5.35,8.54h5.56ZM120,18.53c-3-.24-4.65,1.67-5.49,3.85h-0.07a22.78,22.78,0,0,0,.31-3.47h-4.2V36.17H115v-7c0-4.79,1.6-6.88,4.79-6.22Zm-17.12,6.7H96.5c0.24-2.08,1.53-3.44,3.37-3.44s3.05,1.29,3,3.44m4.41,1c0-4.27-2.22-7.71-7.26-7.71s-8.09,3.89-8.09,9.17c0,6.08,3.05,8.82,8.54,8.82a17.16,17.16,0,0,0,6.18-1.11L106.22,32a12.36,12.36,0,0,1-5,1.08c-3.19,0-4.79-1.56-4.76-4.79h10.7a14.46,14.46,0,0,0,.14-2M91.39,18.91H86.84L84.9,25.65a47.44,47.44,0,0,0-1.21,5H83.61a49,49,0,0,0-1.39-5.21l-2.12-6.53H75.83l-2.08,6.74a38.9,38.9,0,0,0-1.25,5h0c-0.42-1.77-.9-3.51-1.35-5.21l-1.84-6.53H64.41l5.28,17.26h4.58L76.46,29c0.45-1.42.83-2.74,1.18-4.34h0a38.67,38.67,0,0,0,1,3.86l2.5,7.68H86ZM62.74,36.17V24c0-3-1.25-5.52-5.14-5.52A6.3,6.3,0,0,0,51.73,22l0,0a18.94,18.94,0,0,0,.24-3.06h-4.2V36.17h4.45V27.83c0-3,1.77-5.59,4-5.59,1.63,0,2.12,1.08,2.12,2.88v11h4.41ZM45.2,18.53c-3-.24-4.65,1.67-5.49,3.85H39.65A22.78,22.78,0,0,0,40,18.91h-4.2V36.17H40.2v-7c0-4.79,1.6-6.88,4.79-6.22Zm-17,6.7H21.86c0.24-2.08,1.53-3.44,3.37-3.44s3.06,1.29,3,3.44m4.41,1c0-4.27-2.22-7.71-7.26-7.71s-8.09,3.89-8.09,9.17c0,6.08,3.06,8.82,8.54,8.82A17.16,17.16,0,0,0,32,35.4L31.59,32a12.35,12.35,0,0,1-5,1.08c-3.19,0-4.79-1.56-4.76-4.79h10.7a14.24,14.24,0,0,0,.14-2M14.57,10.81H10.13V36.17h4.44V10.81Z" transform="translate(-10.13 -10.81)"></path>
</svg>
